# xmcd CD database file
#
# Track frame offsets:
#	182
#	17475
#	31690
#	52807
#	65777
#	80132
#	94055
#	112357
#	128802
#	141162
#	153732
#	165572
#	175560
#	193775
#
# Disc length: 2768 seconds
#
# Revision: 0
# Processed by: cddbd v1.5.1PL0 Copyright (c) Steve Scherf et al.
# Submitted via: CDex 1.51
#
DISCID=bc0ace0e
DTITLE=Various Artist - Tradition Manouche
DYEAR=1993
DGENRE=Jazz
TTITLE0=Rythme Gitan -- Joe Privat
TTITLE1=After You'Ve Gone -- Craemer/Layton
TTITLE2=Bolero -- Django Reinhardt
TTITLE3=Douce Ambiance -- Django Reinhardt 
TTITLE4=Lulu Swing -- Lulu Reinhardt
TTITLE5=Swing Valse -- Gus Viseur 
TTITLE6=Nuages -- Django Reinhardt
TTITLE7=Les Yeux Noirs -- Trad Duchemin P
TTITLE8=Cocktail Swing -- Ferret, Sarane
TTITLE9=Diangologie -- Django Reinhardt
TTITLE10=Minor Swing -- Django Reinhardt 
TTITLE11=Stomping At The Decca -- Django Reinhardt
TTITLE12=Tears -- Django Reinhardt
TTITLE13=Gipsy Swing -- Dominique Lacroix
EXTD=YEAR: 1993
EXTT0=
EXTT1=
EXTT2=
EXTT3=
EXTT4=
EXTT5=
EXTT6=
EXTT7=
EXTT8=
EXTT9=
EXTT10=
EXTT11=
EXTT12=
EXTT13=
PLAYORDER=
